<?xml version="1.0" encoding="utf-8"?>
<!-- Generator: Adobe Illustrator 16.0.0, SVG Export Plug-In . SVG Version: 6.00 Build 0)  -->
<!DOCTYPE svg PUBLIC "-//W3C//DTD SVG 1.1//EN" "http://www.w3.org/Graphics/SVG/1.1/DTD/svg11.dtd">
<svg version="1.1" id="Layer_1" xmlns="http://www.w3.org/2000/svg" xmlns:xlink="http://www.w3.org/1999/xlink" x="0px" y="0px"
	 width="128px" height="128px" viewBox="0 0 128 128" enable-background="new 0 0 128 128" xml:space="preserve">
<g>
	<path fill="#333333" d="M119.804,28.541c0.121-0.326,0.198-0.424,0.198-0.791c0-1.654-1.346-2.75-3-2.75h-7c-1.654,0-3,1.346-3,3
		c0,0.353,0.072,0,0.185,1H92.889L88.5,19.961C86.904,16.674,82.634,14,78.98,14H49.023c-3.654,0-7.925,2.674-9.521,5.961L35.115,29
		H31v-4.5c0-0.553-0.445-0.5-0.998-0.5h-20C9.449,24,9,23.947,9,24.5v4c-5,0-9,4.037-9,9v68c0,4.963,4.039,9.5,9.002,9.5h110
		c4.963,0,8.998-4.537,8.998-9.5v-68C128,32.809,124.392,28.949,119.804,28.541z M80,27c0,0.552-0.448,1-1,1H49
		c-0.552,0-1-0.448-1-1v-4c0-0.552,0.448-1,1-1h30c0.552,0,1,0.448,1,1V27z M14.002,48.5c-3.309,0-6-2.691-6-6s2.691-6,6-6
		s6,2.691,6,6S17.311,48.5,14.002,48.5z M22.002,53.5c-1.654,0-3-1.346-3-3s1.346-3,3-3s3,1.346,3,3S23.656,53.5,22.002,53.5z
		 M64.002,106.5c-19.299,0-35-15.701-35-35s15.701-35,35-35s35,15.701,35,35S83.301,106.5,64.002,106.5z"/>
	<path fill="#333333" d="M64.002,43.5c-15.439,0-28,12.561-28,28s12.561,28,28,28s28-12.561,28-28S79.441,43.5,64.002,43.5z
		 M64.002,86.5c-8.271,0-15-6.729-15-15s6.729-15,15-15s15,6.729,15,15S72.273,86.5,64.002,86.5z"/>
</g>
</svg>
